<?xml version="1.0" encoding="UTF-8" standalone="no"?>
<svg
   viewBox="0 0 1496 1496"
   height="1496"
   width="1496"
   xml:space="preserve"
   id="svg2"
   version="1.1"
   sodipodi:docname="dollar.svg"
   inkscape:version="1.2.2 (b0a8486, 2022-12-01)"
   inkscape:export-filename="dollar.png"
   inkscape:export-xdpi="1.6042781"
   inkscape:export-ydpi="1.6042781"
   xmlns:inkscape="http://www.inkscape.org/namespaces/inkscape"
   xmlns:sodipodi="http://sodipodi.sourceforge.net/DTD/sodipodi-0.dtd"
   xmlns="http://www.w3.org/2000/svg"
   xmlns:svg="http://www.w3.org/2000/svg"
   xmlns:rdf="http://www.w3.org/1999/02/22-rdf-syntax-ns#"
   xmlns:cc="http://creativecommons.org/ns#"
   xmlns:dc="http://purl.org/dc/elements/1.1/"><sodipodi:namedview
     id="namedview13"
     pagecolor="#ffffff"
     bordercolor="#000000"
     borderopacity="0.25"
     inkscape:showpageshadow="2"
     inkscape:pageopacity="0.0"
     inkscape:pagecheckerboard="0"
     inkscape:deskcolor="#d1d1d1"
     showgrid="false"
     inkscape:zoom="0.15775401"
     inkscape:cx="1001.5593"
     inkscape:cy="767.01695"
     inkscape:window-width="1309"
     inkscape:window-height="714"
     inkscape:window-x="0"
     inkscape:window-y="25"
     inkscape:window-maximized="0"
     inkscape:current-layer="svg2" /><metadata
     id="metadata8"><rdf:RDF><cc:Work
         rdf:about=""><dc:format>image/svg+xml</dc:format><dc:type
           rdf:resource="http://purl.org/dc/dcmitype/StillImage" /></cc:Work></rdf:RDF></metadata><defs
     id="defs6" /><g
     id="g191"
     transform="matrix(1.5764981,0,0,1.5764981,-431.22055,-431.22058)"><path
       id="path16"
       style="fill:#f6d738;fill-opacity:1;fill-rule:nonzero;stroke:none;stroke-width:0.133333"
       d="m 324.66666,748.00002 c 0,-233.80133 189.53199,-423.33332 423.33332,-423.33332 233.80133,0 423.33332,189.53199 423.33332,423.33332 0,233.80133 -189.53199,423.33328 -423.33332,423.33328 -233.80133,0 -423.33332,-189.53195 -423.33332,-423.33328" /><path
       id="path18"
       style="fill:#f3cc30;fill-opacity:1;fill-rule:nonzero;stroke:none;stroke-width:0.133333"
       d="m 388.72266,748.00002 c 0,-198.42266 160.85466,-359.27733 359.27732,-359.27733 198.42266,0 359.27732,160.85467 359.27732,359.27733 0,198.42266 -160.85466,359.27728 -359.27732,359.27728 -198.42266,0 -359.27732,-160.85462 -359.27732,-359.27728" /><path
       id="path20"
       style="fill:#edbd31;fill-opacity:1;fill-rule:nonzero;stroke:none;stroke-width:0.133333"
       d="m 935.97064,441.35603 c 35.77867,55.85599 56.52267,122.26666 56.52267,193.52266 0,198.42399 -160.85466,359.27732 -359.27733,359.27732 -68.91199,0 -133.28399,-19.41733 -187.96932,-53.056 63.85199,99.68399 175.58666,165.75329 302.75332,165.75329 198.42266,0 359.27732,-160.85329 359.27732,-359.27728 0,-129.51066 -68.536,-243 -171.30666,-306.21999" /><path
       id="path22"
       style="fill:#f7db5e;fill-opacity:1;fill-rule:nonzero;stroke:none;stroke-width:0.133333"
       d="m 451.65866,780.87335 c 0,-175.15599 141.99199,-317.14799 317.14799,-317.14799 102.38266,0 193.41599,48.52533 251.40135,123.81866 -54.76402,-95.07333 -157.40935,-159.07866 -275.00802,-159.07866 -175.15599,0 -317.14799,141.992 -317.14799,317.14799 0,72.776 24.53067,139.81067 65.74933,193.33066 -26.80667,-46.53466 -42.14266,-100.51066 -42.14266,-158.07066" /><path
       id="path24"
       style="fill:#d49a34;fill-opacity:1;fill-rule:nonzero;stroke:none;stroke-width:0.133333"
       d="m 777.65731,516.10936 v 45.77066 c 18.368,2.95867 33.39467,9.032 45.07067,18.216 11.67733,9.18667 22.80533,23.276 33.39467,42.26667 l -45.53734,25.456 c -13.70133,-24.90667 -31.60666,-37.36533 -53.71066,-37.36533 -13.70267,0 -25.06933,4.04933 -34.09467,12.144 -9.03066,8.09599 -13.544,18.21466 -13.544,30.35733 0,11.05733 3.656,20.24 10.97467,27.55733 7.15867,7.16133 21.63733,15.64667 43.43466,25.45333 18.83467,8.564 34.40534,16.62134 46.70534,24.17067 12.296,7.552 21.56133,14.828 27.78933,21.83467 17.592,18.99599 26.38933,41.95599 26.38933,68.88933 0,26.468 -7.94,49.82133 -23.82,70.05733 -15.72666,20.08266 -36.744,33.628 -63.052,40.63466 v 48.33867 h -40.86666 v -46.94 c -30.51467,-4.984 -53.79067,-15.488 -69.824,-31.524 -16.036,-16.03466 -27.87067,-40.788 -35.496,-74.26133 l 51.376,-10.744 c 7.00533,23.668 15.56533,40.55867 25.688,50.676 10.58533,9.65467 24.672,14.48 42.268,14.48 17.12266,0 31.44533,-5.52533 42.968,-16.58 11.364,-10.896 17.048,-24.98933 17.048,-42.27067 0,-15.41066 -4.75067,-27.788 -14.24534,-37.12933 -4.828,-4.51333 -11.94933,-9.60933 -21.36933,-15.29467 -9.41867,-5.68266 -21.44667,-11.86933 -36.07867,-18.56533 -30.20399,-13.544 -50.05466,-25.99866 -59.54799,-37.364 -15.10267,-16.968 -22.652,-37.28533 -22.652,-60.95066 0,-11.21067 1.788,-21.63867 5.37066,-31.29333 3.58,-9.65067 8.75734,-18.40667 15.52934,-26.272 6.772,-7.85867 15.14,-14.67067 25.10533,-20.43334 9.96133,-5.756 21.25067,-10.27466 33.86,-13.544 v -45.77066 h 40.86666" /></g></svg>
