<?xml version="1.0" encoding="UTF-8" standalone="no"?>
<!-- Created with Inkscape (http://www.inkscape.org/) -->

<svg
   version="1.1"
   id="svg2"
   width="2928"
   height="2733.3333"
   viewBox="0 0 2928 2733.3333"
   sodipodi:docname="school-mix.svg"
   inkscape:version="1.2.2 (b0a8486, 2022-12-01)"
   inkscape:export-filename="school-mix.png"
   inkscape:export-xdpi="1.6393442"
   inkscape:export-ydpi="1.6393442"
   xmlns:inkscape="http://www.inkscape.org/namespaces/inkscape"
   xmlns:sodipodi="http://sodipodi.sourceforge.net/DTD/sodipodi-0.dtd"
   xmlns="http://www.w3.org/2000/svg"
   xmlns:svg="http://www.w3.org/2000/svg">
  <defs
     id="defs6" />
  <sodipodi:namedview
     id="namedview4"
     pagecolor="#ffffff"
     bordercolor="#000000"
     borderopacity="0.25"
     inkscape:showpageshadow="2"
     inkscape:pageopacity="0.0"
     inkscape:pagecheckerboard="0"
     inkscape:deskcolor="#d1d1d1"
     showgrid="false"
     inkscape:zoom="0.23286454"
     inkscape:cx="1369.8951"
     inkscape:cy="1279.7139"
     inkscape:window-width="1333"
     inkscape:window-height="946"
     inkscape:window-x="0"
     inkscape:window-y="25"
     inkscape:window-maximized="0"
     inkscape:current-layer="g10" />
  <g
     id="g8"
     inkscape:groupmode="layer"
     inkscape:label="ink_ext_XXXXXX"
     transform="matrix(1.3333333,0,0,-1.3333333,0,2733.3333)">
    <g
       id="g10"
       transform="matrix(0.13573897,0,0,0.14032644,-392.37548,-413.47049)">
      <g
         id="g4688"
         style="stroke-width:5.43424539;stroke-dasharray:none">
        <path
           d="m 3670.82,5285.5 h 1438.71 v 5072.7 H 3670.82 V 5285.5"
           style="fill:#e5d5ff;fill-opacity:1;fill-rule:nonzero;stroke:#000000;stroke-width:5.43424539;stroke-dasharray:none;stroke-opacity:1"
           id="path12" />
        <path
           d="M 16842.2,10358.2 V 5285.5 h 1438.7 v 5072.7 h -1438.7"
           style="fill:#e5d5ff;fill-opacity:1;fill-rule:nonzero;stroke:#000000;stroke-width:5.43424539;stroke-dasharray:none;stroke-opacity:1"
           id="path14" />
        <path
           d="m 13563.5,12903.7 v 719.5 H 8388.28 v -3265 H 5399.96 V 5285.5 h 1884.49 c 1.21,94.7 40.24,175 94.81,206.2 -15.55,35.4 -24.73,78.1 -24.73,124.1 0,121.8 63.91,220.5 142.81,220.5 h 6957.16 c 78.9,0 142.8,-98.7 142.8,-220.5 0,-46 -9.2,-88.7 -24.8,-124.1 54.6,-31.2 93.6,-111.5 94.8,-206.2 h 1884.5 v 5072.7 h -2988.3 v 2545.5"
           style="fill:#e5d5ff;fill-opacity:1;fill-rule:nonzero;stroke:#000000;stroke-width:5.43424539;stroke-dasharray:none;stroke-opacity:1"
           id="path16" />
        <path
           d="m 18550.3,4815.5 c 32.9,48.2 52.2,106.5 52.2,169.2 0,166.1 -134.7,300.8 -300.7,300.8 h -20.9 -1438.7 v -250.3 c 0,-80.2 -290.4,-80.2 -290.4,0 v 250.3 h -1884.5 c -1.2,94.7 -40.2,175 -94.8,206.2 15.6,35.4 24.8,78.1 24.8,124.1 0,121.8 -63.9,220.5 -142.8,220.5 H 7497.34 c -78.9,0 -142.81,-98.7 -142.81,-220.5 0,-46 9.18,-88.7 24.73,-124.1 -54.57,-31.2 -93.6,-111.5 -94.81,-206.2 H 5399.96 v -250.3 c 0,-80.2 -290.43,-80.2 -290.43,0 v 250.3 h -1438.71 -20.78 c -166.13,0 -300.78,-134.7 -300.78,-300.8 0,-62.7 19.26,-121 52.15,-169.2 -116.76,-43.3 -200.16,-155.3 -200.16,-287.1 0,-169.3 137.3,-306.6 306.56,-306.6 H 18444 c 169.2,0 306.5,137.3 306.5,306.6 0,131.8 -83.4,243.8 -200.2,287.1"
           style="fill:#b380ff;fill-opacity:1;fill-rule:nonzero;stroke:#000000;stroke-width:5.43424539;stroke-dasharray:none;stroke-opacity:1"
           id="path18" />
        <path
           d="m 7145.08,15318.9 -1745.12,573 v -1415.5 l 1745.12,572.9 c 225.62,74.2 225.62,195.5 0,269.6"
           style="fill:#b380ff;fill-opacity:1;fill-rule:nonzero;stroke:#000000;stroke-width:5.43424539;stroke-dasharray:none;stroke-opacity:1"
           id="path20" />
        <path
           d="m 18587.4,15318.9 -1745.2,573 v -1415.5 l 1745.2,572.9 c 225.6,74.2 225.6,195.5 0,269.6"
           style="fill:#b380ff;fill-opacity:1;fill-rule:nonzero;stroke:#000000;stroke-width:5.43424539;stroke-dasharray:none;stroke-opacity:1"
           id="path22" />
        <path
           d="m 16697,16185.7 c -80.1,0 -145.2,-64.9 -145.2,-145.1 V 12903.7 10358.2 5285.5 5035.2 c 0,-80.2 290.4,-80.2 290.4,0 v 250.3 5072.7 2431.7 1686.5 1415.5 148.7 c 0,80.2 -65,145.1 -145.2,145.1"
           style="fill:#bdbcbc;fill-opacity:1;fill-rule:nonzero;stroke:#000000;stroke-width:5.43424539;stroke-dasharray:none;stroke-opacity:1"
           id="path24" />
        <path
           d="m 5254.77,16185.7 c -80.28,0 -145.24,-64.9 -145.24,-145.1 V 12789.9 10358.2 5285.5 5035.2 c 0,-80.2 290.43,-80.2 290.43,0 v 250.3 5072.7 2545.5 1572.7 1415.5 148.7 c 0,80.2 -65.04,145.1 -145.19,145.1"
           style="fill:#bdbcbc;fill-opacity:1;fill-rule:nonzero;stroke:#000000;stroke-width:5.43424539;stroke-dasharray:none;stroke-opacity:1"
           id="path26" />
        <path
           d="m 13563.5,10358.2 h 2988.3 v 2545.5 h -2988.3 v -2545.5"
           style="fill:#b380ff;fill-opacity:1;fill-rule:nonzero;stroke:#000000;stroke-width:5.43424539;stroke-dasharray:none;stroke-opacity:1"
           id="path28" />
        <path
           d="m 18444,10971.3 h -440.2 l -1155.2,1810.3 c -1.9,2.8 -4.3,5.5 -6.4,8.3 v -2431.7 h 1438.7 163.1 c 169.2,0 306.5,137.2 306.5,306.5 0,169.3 -137.3,306.6 -306.5,306.6"
           style="fill:#b380ff;fill-opacity:1;fill-rule:nonzero;stroke:#000000;stroke-width:5.43424539;stroke-dasharray:none;stroke-opacity:1"
           id="path30" />
        <path
           d="m 5399.96,10358.2 h 2988.32 v 2545.5 H 5399.96 v -2545.5"
           style="fill:#b380ff;fill-opacity:1;fill-rule:nonzero;stroke:#000000;stroke-width:5.43424539;stroke-dasharray:none;stroke-opacity:1"
           id="path32" />
        <path
           d="m 3947.97,10971.3 h -440.16 c -169.26,0 -306.56,-137.3 -306.56,-306.6 0,-169.3 137.3,-306.5 306.56,-306.5 h 163.01 1438.71 v 2431.7 c -1.99,-2.8 -4.45,-5.5 -6.29,-8.3 L 3947.97,10971.3"
           style="fill:#b380ff;fill-opacity:1;fill-rule:nonzero;stroke:#000000;stroke-width:5.43424539;stroke-dasharray:none;stroke-opacity:1"
           id="path34" />
        <path
           d="m 14212.8,13623.2 c 106.5,0 193,86.5 193,193 0,106.5 -86.5,193 -193,193 h -432.2 c -5.1,4.7 -9.7,9.4 -15.2,14.1 l -2451.1,2139.2 c -186.1,162.5 -490.7,162.5 -676.8,0 L 8186.41,14023.3 c -5.51,-4.7 -10.16,-9.4 -15.24,-14.1 h -432.15 c -106.6,0 -192.97,-86.5 -192.97,-193 0,-106.5 86.37,-193 192.97,-193 h 649.26 5175.22 649.3"
           style="fill:#b380ff;fill-opacity:1;fill-rule:nonzero;stroke:#000000;stroke-width:5.43424539;stroke-dasharray:none;stroke-opacity:1"
           id="path36" />
        <path
           d="m 15270.3,4585.5 c 0,-44.3 -35.8,-80.1 -80,-80.1 H 6761.56 c -44.22,0 -80.08,35.8 -80.08,80.1 0,44.2 35.86,80.1 80.08,80.1 h 8428.74 c 44.2,0 80,-35.9 80,-80.1"
           style="fill:#91d67c;fill-opacity:1;fill-rule:nonzero;stroke:#000000;stroke-width:5.43424539;stroke-dasharray:none;stroke-opacity:1"
           id="path38" />
        <path
           d="m 14538.4,5064.8 c 0,-44.1 -35.9,-80.1 -80.1,-80.1 H 7493.48 c -44.22,0 -80.08,36 -80.08,80.1 0,44.3 35.86,80.1 80.08,80.1 h 6964.82 c 44.2,0 80.1,-35.8 80.1,-80.1"
           style="fill:#91d67c;fill-opacity:1;fill-rule:nonzero;stroke:#000000;stroke-width:5.43424539;stroke-dasharray:none;stroke-opacity:1"
           id="path40" />
        <path
           d="m 13806.4,5540.7 c 0,-44.2 -35.8,-80.1 -80,-80.1 H 8225.43 c -44.22,0 -80.08,35.9 -80.08,80.1 0,44.2 35.86,80.1 80.08,80.1 h 5500.97 c 44.2,0 80,-35.9 80,-80.1"
           style="fill:#91d67c;fill-opacity:1;fill-rule:nonzero;stroke:#000000;stroke-width:5.43424539;stroke-dasharray:none;stroke-opacity:1"
           id="path42" />
        <path
           d="m 11503.3,11592.2 h -1054.8 v -1577.1 h 1054.8 v 1577.1"
           style="fill:#ffffff;fill-opacity:1;fill-rule:nonzero;stroke:#000000;stroke-width:5.43424539;stroke-dasharray:none;stroke-opacity:1"
           id="path44" />
        <path
           d="m 11381.7,11047.3 v -850.5 H 10570 v 850.5 h 811.7"
           style="fill:#36bdd6;fill-opacity:1;fill-rule:nonzero;stroke:#000000;stroke-width:5.43424539;stroke-dasharray:none;stroke-opacity:1"
           id="path46" />
        <path
           d="m 10570,11178.9 v 231.6 h 811.7 v -231.6 H 10570"
           style="fill:#36bdd6;fill-opacity:1;fill-rule:nonzero;stroke:#000000;stroke-width:5.43424539;stroke-dasharray:none;stroke-opacity:1"
           id="path48" />
        <path
           d="m 13122.5,11592.2 h -1054.7 v -1577.1 h 1054.7 v 1577.1"
           style="fill:#ffffff;fill-opacity:1;fill-rule:nonzero;stroke:#000000;stroke-width:5.43424539;stroke-dasharray:none;stroke-opacity:1"
           id="path50" />
        <path
           d="m 13001,11047.3 v -850.5 h -811.7 v 850.5 h 811.7"
           style="fill:#36bdd6;fill-opacity:1;fill-rule:nonzero;stroke:#000000;stroke-width:5.43424539;stroke-dasharray:none;stroke-opacity:1"
           id="path52" />
        <path
           d="m 12189.3,11178.9 v 231.6 h 811.7 v -231.6 h -811.7"
           style="fill:#36bdd6;fill-opacity:1;fill-rule:nonzero;stroke:#000000;stroke-width:5.43424539;stroke-dasharray:none;stroke-opacity:1"
           id="path54" />
        <path
           d="m 13122.5,13468.3 h -1054.7 v -1577.2 h 1054.7 v 1577.2"
           style="fill:#ffffff;fill-opacity:1;fill-rule:nonzero;stroke:#000000;stroke-width:5.43424539;stroke-dasharray:none;stroke-opacity:1"
           id="path56" />
        <path
           d="m 13001,12923.4 v -850.5 h -811.7 v 850.5 h 811.7"
           style="fill:#36bdd6;fill-opacity:1;fill-rule:nonzero;stroke:#000000;stroke-width:5.43424539;stroke-dasharray:none;stroke-opacity:1"
           id="path58" />
        <path
           d="m 12189.3,13055.1 v 231.5 h 811.7 v -231.5 h -811.7"
           style="fill:#36bdd6;fill-opacity:1;fill-rule:nonzero;stroke:#000000;stroke-width:5.43424539;stroke-dasharray:none;stroke-opacity:1"
           id="path60" />
        <path
           d="M 9883.98,11592.2 H 8829.22 v -1577.1 h 1054.76 v 1577.1"
           style="fill:#ffffff;fill-opacity:1;fill-rule:nonzero;stroke:#000000;stroke-width:5.43424539;stroke-dasharray:none;stroke-opacity:1"
           id="path62" />
        <path
           d="m 9762.46,11047.3 v -850.5 h -811.68 v 850.5 h 811.68"
           style="fill:#36bdd6;fill-opacity:1;fill-rule:nonzero;stroke:#000000;stroke-width:5.43424539;stroke-dasharray:none;stroke-opacity:1"
           id="path64" />
        <path
           d="m 8950.78,11178.9 v 231.6 h 811.68 v -231.6 h -811.68"
           style="fill:#36bdd6;fill-opacity:1;fill-rule:nonzero;stroke:#000000;stroke-width:5.43424539;stroke-dasharray:none;stroke-opacity:1"
           id="path66" />
        <path
           d="M 9883.98,13468.3 H 8829.22 v -1577.2 h 1054.76 v 1577.2"
           style="fill:#ffffff;fill-opacity:1;fill-rule:nonzero;stroke:#000000;stroke-width:5.43424539;stroke-dasharray:none;stroke-opacity:1"
           id="path68" />
        <path
           d="m 9762.46,12923.4 v -850.5 h -811.68 v 850.5 h 811.68"
           style="fill:#36bdd6;fill-opacity:1;fill-rule:nonzero;stroke:#000000;stroke-width:5.43424539;stroke-dasharray:none;stroke-opacity:1"
           id="path70" />
        <path
           d="m 8950.78,13055.1 v 231.5 h 811.68 v -231.5 h -811.68"
           style="fill:#36bdd6;fill-opacity:1;fill-rule:nonzero;stroke:#000000;stroke-width:5.43424539;stroke-dasharray:none;stroke-opacity:1"
           id="path72" />
        <path
           d="m 16285.6,8216.4 h -816.3 V 6995.9 h 816.3 v 1220.5"
           style="fill:#ffffff;fill-opacity:1;fill-rule:nonzero;stroke:#000000;stroke-width:5.43424539;stroke-dasharray:none;stroke-opacity:1"
           id="path74" />
        <path
           d="m 16191.5,7794.8 v -658.3 h -628.2 v 658.3 h 628.2"
           style="fill:#36bdd6;fill-opacity:1;fill-rule:nonzero;stroke:#000000;stroke-width:5.43424539;stroke-dasharray:none;stroke-opacity:1"
           id="path76" />
        <path
           d="m 15563.3,7896.7 v 179.2 h 628.2 v -179.2 h -628.2"
           style="fill:#36bdd6;fill-opacity:1;fill-rule:nonzero;stroke:#000000;stroke-width:5.43424539;stroke-dasharray:none;stroke-opacity:1"
           id="path78" />
        <path
           d="m 16285.6,9668.5 h -816.3 V 8447.8 h 816.3 v 1220.7"
           style="fill:#ffffff;fill-opacity:1;fill-rule:nonzero;stroke:#000000;stroke-width:5.43424539;stroke-dasharray:none;stroke-opacity:1"
           id="path80" />
        <path
           d="m 16191.5,9246.8 v -658.3 h -628.2 v 658.3 h 628.2"
           style="fill:#36bdd6;fill-opacity:1;fill-rule:nonzero;stroke:#000000;stroke-width:5.43424539;stroke-dasharray:none;stroke-opacity:1"
           id="path82" />
        <path
           d="m 15563.3,9348.7 v 179.2 h 628.2 v -179.2 h -628.2"
           style="fill:#36bdd6;fill-opacity:1;fill-rule:nonzero;stroke:#000000;stroke-width:5.43424539;stroke-dasharray:none;stroke-opacity:1"
           id="path84" />
        <path
           d="M 15059.3,8216.4 H 14243 V 6995.9 h 816.3 v 1220.5"
           style="fill:#ffffff;fill-opacity:1;fill-rule:nonzero;stroke:#000000;stroke-width:5.43424539;stroke-dasharray:none;stroke-opacity:1"
           id="path86" />
        <path
           d="M 14965.2,7794.8 V 7136.5 H 14337 v 658.3 h 628.2"
           style="fill:#36bdd6;fill-opacity:1;fill-rule:nonzero;stroke:#000000;stroke-width:5.43424539;stroke-dasharray:none;stroke-opacity:1"
           id="path88" />
        <path
           d="m 14337,7896.7 v 179.2 h 628.2 V 7896.7 H 14337"
           style="fill:#36bdd6;fill-opacity:1;fill-rule:nonzero;stroke:#000000;stroke-width:5.43424539;stroke-dasharray:none;stroke-opacity:1"
           id="path90" />
        <path
           d="M 15059.3,9668.5 H 14243 V 8447.8 h 816.3 v 1220.7"
           style="fill:#ffffff;fill-opacity:1;fill-rule:nonzero;stroke:#000000;stroke-width:5.43424539;stroke-dasharray:none;stroke-opacity:1"
           id="path92" />
        <path
           d="M 14965.2,9246.8 V 8588.5 H 14337 v 658.3 h 628.2"
           style="fill:#36bdd6;fill-opacity:1;fill-rule:nonzero;stroke:#000000;stroke-width:5.43424539;stroke-dasharray:none;stroke-opacity:1"
           id="path94" />
        <path
           d="m 14337,9348.7 v 179.2 h 628.2 V 9348.7 H 14337"
           style="fill:#36bdd6;fill-opacity:1;fill-rule:nonzero;stroke:#000000;stroke-width:5.43424539;stroke-dasharray:none;stroke-opacity:1"
           id="path96" />
        <path
           d="m 13833,8216.4 h -816.3 V 6995.9 h 816.3 v 1220.5"
           style="fill:#ffffff;fill-opacity:1;fill-rule:nonzero;stroke:#000000;stroke-width:5.43424539;stroke-dasharray:none;stroke-opacity:1"
           id="path98" />
        <path
           d="m 13739,7794.8 v -658.3 h -628.3 v 658.3 h 628.3"
           style="fill:#36bdd6;fill-opacity:1;fill-rule:nonzero;stroke:#000000;stroke-width:5.43424539;stroke-dasharray:none;stroke-opacity:1"
           id="path100" />
        <path
           d="m 13110.7,7896.7 v 179.2 h 628.3 v -179.2 h -628.3"
           style="fill:#36bdd6;fill-opacity:1;fill-rule:nonzero;stroke:#000000;stroke-width:5.43424539;stroke-dasharray:none;stroke-opacity:1"
           id="path102" />
        <path
           d="m 13833,9668.5 h -816.3 V 8447.8 h 816.3 v 1220.7"
           style="fill:#ffffff;fill-opacity:1;fill-rule:nonzero;stroke:#000000;stroke-width:5.43424539;stroke-dasharray:none;stroke-opacity:1"
           id="path104" />
        <path
           d="m 13739,9246.8 v -658.3 h -628.3 v 658.3 h 628.3"
           style="fill:#36bdd6;fill-opacity:1;fill-rule:nonzero;stroke:#000000;stroke-width:5.43424539;stroke-dasharray:none;stroke-opacity:1"
           id="path106" />
        <path
           d="m 13110.7,9348.7 v 179.2 h 628.3 v -179.2 h -628.3"
           style="fill:#36bdd6;fill-opacity:1;fill-rule:nonzero;stroke:#000000;stroke-width:5.43424539;stroke-dasharray:none;stroke-opacity:1"
           id="path108" />
        <path
           d="M 8935.08,8216.4 H 8118.75 V 6995.9 h 816.33 v 1220.5"
           style="fill:#ffffff;fill-opacity:1;fill-rule:nonzero;stroke:#000000;stroke-width:5.43424539;stroke-dasharray:none;stroke-opacity:1"
           id="path110" />
        <path
           d="m 8841.02,7794.8 v -658.3 h -628.21 v 658.3 h 628.21"
           style="fill:#36bdd6;fill-opacity:1;fill-rule:nonzero;stroke:#000000;stroke-width:5.43424539;stroke-dasharray:none;stroke-opacity:1"
           id="path112" />
        <path
           d="m 8212.81,7896.7 v 179.2 h 628.21 v -179.2 h -628.21"
           style="fill:#36bdd6;fill-opacity:1;fill-rule:nonzero;stroke:#000000;stroke-width:5.43424539;stroke-dasharray:none;stroke-opacity:1"
           id="path114" />
        <path
           d="M 8935.08,9668.5 H 8118.75 V 8447.8 h 816.33 v 1220.7"
           style="fill:#ffffff;fill-opacity:1;fill-rule:nonzero;stroke:#000000;stroke-width:5.43424539;stroke-dasharray:none;stroke-opacity:1"
           id="path116" />
        <path
           d="m 8841.02,9246.8 v -658.3 h -628.21 v 658.3 h 628.21"
           style="fill:#36bdd6;fill-opacity:1;fill-rule:nonzero;stroke:#000000;stroke-width:5.43424539;stroke-dasharray:none;stroke-opacity:1"
           id="path118" />
        <path
           d="m 8212.81,9348.7 v 179.2 h 628.21 v -179.2 h -628.21"
           style="fill:#36bdd6;fill-opacity:1;fill-rule:nonzero;stroke:#000000;stroke-width:5.43424539;stroke-dasharray:none;stroke-opacity:1"
           id="path120" />
        <path
           d="M 7708.79,8216.4 H 6892.5 V 6995.9 h 816.29 v 1220.5"
           style="fill:#ffffff;fill-opacity:1;fill-rule:nonzero;stroke:#000000;stroke-width:5.43424539;stroke-dasharray:none;stroke-opacity:1"
           id="path122" />
        <path
           d="m 7614.77,7794.8 v -658.3 h -628.25 v 658.3 h 628.25"
           style="fill:#36bdd6;fill-opacity:1;fill-rule:nonzero;stroke:#000000;stroke-width:5.43424539;stroke-dasharray:none;stroke-opacity:1"
           id="path124" />
        <path
           d="m 6986.52,7896.7 v 179.2 h 628.25 v -179.2 h -628.25"
           style="fill:#36bdd6;fill-opacity:1;fill-rule:nonzero;stroke:#000000;stroke-width:5.43424539;stroke-dasharray:none;stroke-opacity:1"
           id="path126" />
        <path
           d="M 7708.79,9668.5 H 6892.5 V 8447.8 h 816.29 v 1220.7"
           style="fill:#ffffff;fill-opacity:1;fill-rule:nonzero;stroke:#000000;stroke-width:5.43424539;stroke-dasharray:none;stroke-opacity:1"
           id="path128" />
        <path
           d="m 7614.77,9246.8 v -658.3 h -628.25 v 658.3 h 628.25"
           style="fill:#36bdd6;fill-opacity:1;fill-rule:nonzero;stroke:#000000;stroke-width:5.43424539;stroke-dasharray:none;stroke-opacity:1"
           id="path130" />
        <path
           d="m 6986.52,9348.7 v 179.2 h 628.25 v -179.2 h -628.25"
           style="fill:#36bdd6;fill-opacity:1;fill-rule:nonzero;stroke:#000000;stroke-width:5.43424539;stroke-dasharray:none;stroke-opacity:1"
           id="path132" />
        <path
           d="M 6482.54,8216.4 H 5666.21 V 6995.9 h 816.33 v 1220.5"
           style="fill:#ffffff;fill-opacity:1;fill-rule:nonzero;stroke:#000000;stroke-width:5.43424539;stroke-dasharray:none;stroke-opacity:1"
           id="path134" />
        <path
           d="m 6388.48,7794.8 v -658.3 h -628.21 v 658.3 h 628.21"
           style="fill:#36bdd6;fill-opacity:1;fill-rule:nonzero;stroke:#000000;stroke-width:5.43424539;stroke-dasharray:none;stroke-opacity:1"
           id="path136" />
        <path
           d="m 5760.27,7896.7 v 179.2 h 628.21 v -179.2 h -628.21"
           style="fill:#36bdd6;fill-opacity:1;fill-rule:nonzero;stroke:#000000;stroke-width:5.43424539;stroke-dasharray:none;stroke-opacity:1"
           id="path138" />
        <path
           d="M 6482.54,9668.5 H 5666.21 V 8447.8 h 816.33 v 1220.7"
           style="fill:#ffffff;fill-opacity:1;fill-rule:nonzero;stroke:#000000;stroke-width:5.43424539;stroke-dasharray:none;stroke-opacity:1"
           id="path140" />
        <path
           d="m 6388.48,9246.8 v -658.3 h -628.21 v 658.3 h 628.21"
           style="fill:#36bdd6;fill-opacity:1;fill-rule:nonzero;stroke:#000000;stroke-width:5.43424539;stroke-dasharray:none;stroke-opacity:1"
           id="path142" />
        <path
           d="m 5760.27,9348.7 v 179.2 h 628.21 v -179.2 h -628.21"
           style="fill:#36bdd6;fill-opacity:1;fill-rule:nonzero;stroke:#000000;stroke-width:5.43424539;stroke-dasharray:none;stroke-opacity:1"
           id="path144" />
        <path
           d="m 6524.49,15317.3 c -12.3,-39.4 -54.1,-61.4 -93.59,-49.1 l -688.6,214.3 c -39.37,12.3 -61.36,54.1 -49.06,93.5 12.19,39.3 53.91,61.3 93.36,49.1 l 688.67,-214.3 c 39.42,-12.3 61.41,-54.2 49.22,-93.5"
           style="fill:#aaccff;fill-opacity:1;fill-rule:nonzero;stroke:#000000;stroke-width:5.43424539;stroke-dasharray:none;stroke-opacity:1"
           id="path146" />
        <path
           d="m 17966.8,15317.3 c -12.3,-39.4 -54.1,-61.4 -93.6,-49.1 l -688.6,214.3 c -39.4,12.3 -61.4,54.1 -49.1,93.5 12.2,39.3 54,61.3 93.4,49.1 l 688.7,-214.3 c 39.4,-12.3 61.4,-54.2 49.2,-93.5"
           style="fill:#aaccff;fill-opacity:1;fill-rule:nonzero;stroke:#000000;stroke-width:5.43424539;stroke-dasharray:none;stroke-opacity:1"
           id="path148" />
        <path
           d="M 12592.4,5836.3 V 8052 c 0,892.8 -723.8,1616.5 -1616.5,1616.5 -892.8,0 -1616.49,-723.7 -1616.49,-1616.5 V 5836.3 h 3232.99"
           style="fill:#ffffff;fill-opacity:1;fill-rule:nonzero;stroke:#000000;stroke-width:5.43424539;stroke-dasharray:none;stroke-opacity:1"
           id="path150" />
        <path
           d="m 11961,7631.9 v -656.8 h -839.3 v 656.8 h 839.3"
           style="fill:#36bdd6;fill-opacity:1;fill-rule:nonzero;stroke:#000000;stroke-width:5.43424539;stroke-dasharray:none;stroke-opacity:1"
           id="path152" />
        <path
           d="m 11121.7,7733.5 v 178.8 h 839.3 v -178.8 h -839.3"
           style="fill:#36bdd6;fill-opacity:1;fill-rule:nonzero;stroke:#000000;stroke-width:5.43424539;stroke-dasharray:none;stroke-opacity:1"
           id="path154" />
        <path
           d="m 11961,8790.7 v -656.8 h -839.3 v 656.8 h 839.3"
           style="fill:#36bdd6;fill-opacity:1;fill-rule:nonzero;stroke:#000000;stroke-width:5.43424539;stroke-dasharray:none;stroke-opacity:1"
           id="path156" />
        <path
           d="M 11121.7,8892.2 V 9071 h 839.3 v -178.8 h -839.3"
           style="fill:#36bdd6;fill-opacity:1;fill-rule:nonzero;stroke:#000000;stroke-width:5.43424539;stroke-dasharray:none;stroke-opacity:1"
           id="path158" />
        <path
           d="m 10830.1,7631.9 v -656.8 h -839.36 v 656.8 h 839.36"
           style="fill:#36bdd6;fill-opacity:1;fill-rule:nonzero;stroke:#000000;stroke-width:5.43424539;stroke-dasharray:none;stroke-opacity:1"
           id="path160" />
        <path
           d="m 9990.74,7733.5 v 178.8 h 839.36 v -178.8 h -839.36"
           style="fill:#36bdd6;fill-opacity:1;fill-rule:nonzero;stroke:#000000;stroke-width:5.43424539;stroke-dasharray:none;stroke-opacity:1"
           id="path162" />
        <path
           d="m 10830.1,8790.7 v -656.8 h -839.36 v 656.8 h 839.36"
           style="fill:#36bdd6;fill-opacity:1;fill-rule:nonzero;stroke:#000000;stroke-width:5.43424539;stroke-dasharray:none;stroke-opacity:1"
           id="path164" />
        <path
           d="M 9990.74,8892.2 V 9071 h 839.36 v -178.8 h -839.36"
           style="fill:#36bdd6;fill-opacity:1;fill-rule:nonzero;stroke:#000000;stroke-width:5.43424539;stroke-dasharray:none;stroke-opacity:1"
           id="path166" />
        <path
           d="m 11972.2,6149.5 c 0,-17.5 -14.2,-31.6 -31.5,-31.6 h -1929.6 c -17.39,0 -31.45,14.1 -31.45,31.6 0,17.3 14.06,31.5 31.45,31.5 h 1929.6 c 17.3,0 31.5,-14.2 31.5,-31.5"
           style="fill:#bdbcbc;fill-opacity:1;fill-rule:nonzero;stroke:#000000;stroke-width:5.43424539;stroke-dasharray:none;stroke-opacity:1"
           id="path168" />
        <path
           d="m 11972.2,6588.9 c 0,-17.4 -14.2,-31.5 -31.5,-31.5 h -1929.6 c -17.39,0 -31.45,14.1 -31.45,31.5 0,17.4 14.06,31.5 31.45,31.5 h 1929.6 c 17.3,0 31.5,-14.1 31.5,-31.5"
           style="fill:#bdbcbc;fill-opacity:1;fill-rule:nonzero;stroke:#000000;stroke-width:5.43424539;stroke-dasharray:none;stroke-opacity:1"
           id="path170" />
        <path
           d="m 11621.4,12679.7 c 0,-356.5 -289,-645.6 -645.5,-645.6 -356.5,0 -645.5,289.1 -645.5,645.6 0,356.5 289,645.5 645.5,645.5 356.5,0 645.5,-289 645.5,-645.5"
           style="fill:#ffffff;fill-opacity:1;fill-rule:nonzero;stroke:#000000;stroke-width:5.43424539;stroke-dasharray:none;stroke-opacity:1"
           id="path172" />
        <path
           d="m 11028.8,12679.7 c 0,-29.2 -23.7,-52.9 -52.9,-52.9 -29.2,0 -52.9,23.7 -52.9,52.9 0,29.2 23.7,52.8 52.9,52.8 29.2,0 52.9,-23.6 52.9,-52.8"
           style="fill:#040606;fill-opacity:1;fill-rule:nonzero;stroke:#000000;stroke-width:5.43424539;stroke-dasharray:none;stroke-opacity:1"
           id="path174" />
        <path
           d="m 10995.9,12794.3 c 0,-11 -8.9,-20 -20,-20 -11,0 -20,9 -20,20 0,0 9,403.2 20,403.2 11.1,0 20,-403.2 20,-403.2"
           style="fill:#040606;fill-opacity:1;fill-rule:nonzero;stroke:#000000;stroke-width:5.43424539;stroke-dasharray:none;stroke-opacity:1"
           id="path176" />
        <path
           d="m 10923.9,12788 c 6.3,-9 4.1,-21.5 -4.9,-27.8 -9,-6.4 -21.5,-4.2 -27.9,4.8 0,0 -114.8,179.2 -105.7,185.6 9.1,6.2 138.5,-162.6 138.5,-162.6"
           style="fill:#040606;fill-opacity:1;fill-rule:nonzero;stroke:#000000;stroke-width:5.43424539;stroke-dasharray:none;stroke-opacity:1"
           id="path178" />
        <path
           d="m 16406.9,6181 c 0,-37.1 -30,-67.1 -67,-67.1 h -3377.5 c -37,0 -67,30 -67,67.1 0,36.9 30,66.9 67,66.9 h 3377.5 c 37,0 67,-30 67,-66.9"
           style="fill:#b380ff;fill-opacity:1;fill-rule:nonzero;stroke:#000000;stroke-width:5.43424539;stroke-dasharray:none;stroke-opacity:1"
           id="path180" />
        <path
           d="m 16406.9,6669.8 c 0,-37 -30,-67 -67,-67 h -3377.5 c -37,0 -67,30 -67,67 0,37 30,67 67,67 h 3377.5 c 37,0 67,-30 67,-67"
           style="fill:#b380ff;fill-opacity:1;fill-rule:nonzero;stroke:#000000;stroke-width:5.43424539;stroke-dasharray:none;stroke-opacity:1"
           id="path182" />
        <path
           d="m 9056.37,6181 c 0,-37.1 -29.96,-67.1 -66.96,-67.1 h -3377.5 c -36.99,0 -66.99,30 -66.99,67.1 0,36.9 30,66.9 66.99,66.9 h 3377.5 c 37,0 66.96,-30 66.96,-66.9"
           style="fill:#b380ff;fill-opacity:1;fill-rule:nonzero;stroke:#000000;stroke-width:5.43424539;stroke-dasharray:none;stroke-opacity:1"
           id="path184" />
        <path
           d="m 9056.37,6669.8 c 0,-37 -29.96,-67 -66.96,-67 h -3377.5 c -36.99,0 -66.99,30 -66.99,67 0,37 30,67 66.99,67 h 3377.5 c 37,0 66.96,-30 66.96,-67"
           style="fill:#b380ff;fill-opacity:1;fill-rule:nonzero;stroke:#000000;stroke-width:5.43424539;stroke-dasharray:none;stroke-opacity:1"
           id="path186" />
        <path
           d="m 4143.09,9833.2 c 40.86,0 73.94,-33.1 73.94,-73.9 V 6034.1 c 0,-40.8 -33.08,-73.9 -73.94,-73.9 -40.75,0 -73.87,33.1 -73.87,73.9 v 3725.2 c 0,40.8 33.12,73.9 73.87,73.9"
           style="fill:#b380ff;fill-opacity:1;fill-rule:nonzero;stroke:#000000;stroke-width:5.43424539;stroke-dasharray:none;stroke-opacity:1"
           id="path188" />
        <path
           d="m 4655.74,9833.2 c 40.78,0 73.91,-33.1 73.91,-73.9 V 6034.1 c 0,-40.8 -33.13,-73.9 -73.91,-73.9 -40.82,0 -73.94,33.1 -73.94,73.9 v 3725.2 c 0,40.8 33.12,73.9 73.94,73.9"
           style="fill:#b380ff;fill-opacity:1;fill-rule:nonzero;stroke:#000000;stroke-width:5.43424539;stroke-dasharray:none;stroke-opacity:1"
           id="path190" />
        <path
           d="m 17296,9833.2 c 40.9,0 73.9,-33.1 73.9,-73.9 V 6034.1 c 0,-40.8 -33,-73.9 -73.9,-73.9 -40.7,0 -73.9,33.1 -73.9,73.9 v 3725.2 c 0,40.8 33.2,73.9 73.9,73.9"
           style="fill:#b380ff;fill-opacity:1;fill-rule:nonzero;stroke:#000000;stroke-width:5.43424539;stroke-dasharray:none;stroke-opacity:1"
           id="path192" />
        <path
           d="m 17808.6,9833.2 c 40.9,0 74,-33.1 74,-73.9 V 6034.1 c 0,-40.8 -33.1,-73.9 -74,-73.9 -40.7,0 -73.8,33.1 -73.8,73.9 v 3725.2 c 0,40.8 33.1,73.9 73.8,73.9"
           style="fill:#b380ff;fill-opacity:1;fill-rule:nonzero;stroke:#000000;stroke-width:5.43424539;stroke-dasharray:none;stroke-opacity:1"
           id="path194" />
        <path
           d="m 16370.9,10971.3 c 0,-37 -30,-67 -67,-67 h -2417.2 c -37,0 -67,30 -67,67 0,37 30,67 67,67 h 2417.2 c 37,0 67,-30 67,-67"
           style="fill:#aaccff;fill-opacity:1;fill-rule:nonzero;stroke:#000000;stroke-width:5.43424539;stroke-dasharray:none;stroke-opacity:1"
           id="path196" />
        <path
           d="m 8132.07,10971.3 c 0,-37 -30,-67 -66.95,-67 H 5647.89 c -36.95,0 -66.95,30 -66.95,67 0,37 30,67 66.95,67 h 2417.23 c 36.95,0 66.95,-30 66.95,-67"
           style="fill:#aaccff;fill-opacity:1;fill-rule:nonzero;stroke:#000000;stroke-width:5.43424539;stroke-dasharray:none;stroke-opacity:1"
           id="path198" />
        <path
           d="m 12983.4,13942.2 c 0,-37 -30,-67 -67,-67 H 9035.39 c -36.99,0 -66.99,30 -66.99,67 0,36.9 30,67 66.99,67 h 3881.01 c 37,0 67,-30.1 67,-67"
           style="fill:#aaccff;fill-opacity:1;fill-rule:nonzero;stroke:#000000;stroke-width:5.43424539;stroke-dasharray:none;stroke-opacity:1"
           id="path200" />
      </g>
    </g>
  </g>
</svg>
